<svg version="1.0" xmlns="http://www.w3.org/2000/svg"
 width="887.000000pt" height="911.000000pt" viewBox="0 0 887.000000 911.000000"
 preserveAspectRatio="xMidYMid meet">
<g transform="translate(0.000000,911.000000) scale(0.100000,-0.100000)"
fill="#85332D" stroke="none">
<path d="M3729 9106 c-2 -2 -24 -6 -49 -9 -42 -5 -80 -11 -140 -23 -14 -3 -36
-7 -50 -9 -14 -2 -83 -18 -155 -35 -71 -17 -136 -31 -144 -32 -7 -1 -393 -182
-856 -402 -804 -383 -876 -420 -957 -498 -16 -16 -31 -28 -33 -28 -2 0 -22
-17 -43 -37 -22 -21 -72 -70 -113 -109 -88 -83 -194 -200 -285 -313 -10 -13
-25 -29 -32 -36 -6 -8 -12 -17 -12 -21 0 -4 -15 -25 -33 -48 -18 -23 -46 -62
-63 -88 -16 -27 -32 -48 -36 -48 -5 0 -8 -4 -8 -9 0 -5 -25 -51 -55 -102 -64
-107 -166 -314 -185 -374 -7 -22 -16 -42 -20 -45 -4 -3 -16 -32 -28 -65 -11
-33 -53 -150 -92 -260 -40 -110 -79 -222 -87 -250 -8 -27 -26 -83 -40 -124
-14 -41 -26 -83 -29 -94 -2 -11 -10 -41 -18 -66 -7 -25 -19 -66 -25 -91 -7
-25 -19 -67 -27 -95 -8 -27 -19 -72 -25 -100 -6 -27 -12 -57 -14 -65 -11 -48
-46 -210 -51 -235 -3 -16 -10 -48 -14 -70 -5 -22 -9 -429 -10 -905 l0 -866
371 -778 c203 -428 376 -785 384 -793 8 -7 31 -35 52 -60 21 -26 54 -63 73
-83 19 -19 58 -60 86 -90 61 -65 154 -152 250 -235 38 -33 76 -67 84 -75 8 -9
33 -29 55 -45 22 -17 42 -32 45 -35 9 -10 67 -55 90 -70 12 -8 59 -42 104 -75
46 -33 91 -65 102 -72 10 -7 72 -46 137 -88 65 -41 120 -75 122 -75 1 0 33
-18 69 -40 36 -22 70 -40 75 -40 5 0 11 -4 13 -8 3 -8 417 -216 478 -241 19
-7 63 -26 97 -42 34 -15 74 -31 90 -35 15 -4 30 -10 33 -14 3 -4 64 -28 135
-53 72 -25 155 -57 185 -71 30 -14 81 -32 113 -40 32 -8 110 -33 173 -55 63
-23 124 -43 137 -45 12 -3 48 -14 80 -25 31 -11 57 -18 57 -16 0 3 23 -4 50
-15 28 -11 50 -18 50 -16 0 2 30 -5 68 -15 59 -17 127 -34 172 -44 115 -26
214 -47 237 -50 15 -2 39 -6 52 -9 12 -3 42 -8 65 -10 22 -3 58 -8 78 -11 182
-25 313 -32 553 -29 127 1 250 4 275 7 25 3 72 8 105 12 33 4 112 16 175 27
63 11 124 21 135 23 21 3 1470 690 1489 706 71 59 105 88 129 112 16 15 30 27
33 27 6 0 270 265 314 315 19 22 53 62 74 89 22 27 49 58 60 70 12 13 30 35
41 51 11 16 25 33 31 39 6 6 19 25 30 41 10 17 38 55 61 86 54 71 213 324 213
338 0 6 4 11 9 11 5 0 11 8 14 18 4 9 20 40 36 67 17 28 45 79 63 115 18 36
36 67 41 68 4 2 7 10 7 18 0 8 13 40 30 72 40 76 110 230 110 241 0 5 11 31
24 58 13 26 34 80 46 118 13 39 29 79 35 90 7 11 29 70 49 130 20 61 51 151
67 200 17 50 37 113 45 140 26 98 66 241 87 315 21 74 21 89 24 985 l4 910
-371 779 c-204 428 -377 784 -383 791 -7 8 -23 28 -37 46 -14 18 -30 37 -35
43 -6 6 -26 31 -45 56 -19 24 -51 61 -70 81 -19 20 -55 60 -80 89 -53 62 -336
347 -436 440 -115 106 -283 255 -316 280 -11 8 -33 27 -49 41 -16 15 -41 35
-55 45 -15 11 -36 28 -48 39 -11 12 -86 72 -166 135 -80 62 -147 116 -150 120
-3 3 -18 14 -33 23 -16 10 -39 28 -52 39 -13 11 -33 26 -44 32 -11 6 -52 31
-93 56 -66 41 -168 93 -288 148 -25 12 -97 39 -160 61 -63 22 -155 54 -205 71
-78 28 -161 53 -215 65 -8 2 -35 8 -60 15 -25 6 -55 13 -68 15 -55 11 -68 14
-92 19 -14 4 -36 9 -50 13 -26 8 -1533 17 -1541 9z"/>
</g>
</svg>
