<svg version="1.0" xmlns="http://www.w3.org/2000/svg"
 width="887.000000pt" height="911.000000pt" viewBox="0 0 887.000000 911.000000"
 preserveAspectRatio="xMidYMid meet">
<g transform="translate(0.000000,911.000000) scale(0.100000,-0.100000)"
fill="#B2C0BB" stroke="none">
<path d="M3900 9025 c-191 -19 -254 -27 -261 -31 -4 -2 -24 -6 -45 -9 -22 -3
-50 -8 -64 -11 -14 -2 -38 -7 -55 -10 -16 -2 -37 -7 -45 -9 -8 -3 -33 -7 -55
-11 -22 -3 -44 -9 -50 -12 -5 -4 -14 -7 -20 -9 -5 -1 -20 -4 -32 -7 -13 -3
-33 -9 -45 -12 -13 -3 -27 -6 -33 -8 -5 -1 -50 -15 -100 -31 -49 -16 -92 -30
-95 -30 -10 -2 -79 -40 -604 -337 -572 -323 -586 -333 -816 -548 -26 -25 -65
-61 -86 -81 -90 -84 -350 -361 -412 -438 -15 -19 -34 -42 -43 -52 -9 -9 -35
-41 -57 -70 -23 -30 -49 -61 -59 -70 -10 -9 -25 -26 -33 -38 -13 -19 -36 -50
-118 -156 -4 -5 -19 -26 -32 -45 -14 -19 -31 -41 -38 -49 -8 -8 -25 -30 -38
-50 -13 -20 -44 -63 -69 -96 -24 -33 -75 -105 -112 -160 -37 -55 -71 -104 -75
-110 -23 -29 -79 -112 -85 -125 -4 -8 -9 -17 -13 -20 -6 -5 -40 -59 -67 -105
-22 -39 -103 -203 -103 -209 0 -3 -11 -29 -25 -58 -14 -28 -25 -56 -25 -61 0
-5 -7 -23 -15 -40 -8 -18 -28 -81 -44 -142 l-31 -110 0 -1090 c0 -723 4 -1103
10 -1127 6 -21 11 -39 10 -40 0 -2 11 -43 25 -93 23 -80 28 -100 39 -140 15
-59 60 -196 72 -217 8 -16 13 -28 9 -28 -3 0 1 -13 10 -30 9 -16 13 -30 10
-30 -3 0 0 -10 7 -22 6 -13 13 -27 14 -33 10 -41 66 -146 343 -640 277 -493
347 -609 411 -676 8 -10 31 -36 50 -60 60 -75 320 -330 428 -420 8 -6 69 -53
137 -103 119 -88 143 -104 285 -189 98 -59 430 -217 455 -217 4 0 21 -6 38
-14 76 -33 601 -187 687 -201 19 -3 58 -12 87 -20 29 -9 65 -17 80 -19 15 -3
82 -16 148 -30 156 -34 209 -44 268 -51 27 -2 52 -7 55 -9 4 -2 38 -7 77 -11
38 -3 72 -8 75 -10 3 -1 34 -6 70 -9 90 -8 170 -17 205 -21 176 -23 656 -23
880 0 22 2 69 7 105 10 36 3 79 8 95 12 17 3 39 7 50 8 20 2 106 15 135 20 21
4 171 36 195 42 11 2 31 6 44 9 14 3 28 7 33 10 4 3 17 7 28 10 18 4 49 11 75
18 67 17 199 62 230 78 125 66 1053 593 1067 607 10 9 29 25 43 36 35 27 84
71 190 174 75 73 122 122 240 255 6 6 26 31 45 56 18 25 41 53 49 62 24 26
170 220 198 264 7 10 32 48 55 84 23 36 54 84 69 107 15 22 30 51 34 62 3 12
10 21 15 21 4 0 13 12 19 28 15 34 42 85 50 92 3 3 29 50 56 105 28 55 53 102
58 103 4 2 7 8 7 14 0 5 16 42 35 81 19 39 35 77 35 84 0 7 5 13 10 13 6 0 10
9 10 19 0 11 5 23 10 26 6 3 10 15 10 26 0 10 5 19 10 19 6 0 10 7 10 15 0 8
4 23 9 33 23 43 101 241 133 337 13 39 25 72 28 75 3 3 13 30 22 60 52 175 91
304 112 375 28 90 94 344 102 390 2 17 9 44 14 60 5 17 12 46 15 65 3 19 8 42
11 51 2 10 6 30 9 45 2 16 10 63 19 104 18 88 43 241 52 320 3 30 7 66 10 80
24 149 25 731 0 855 -4 24 -18 120 -21 155 -2 21 -14 87 -29 165 -2 11 -9 38
-14 60 -6 22 -13 51 -16 65 -3 14 -8 36 -11 50 -3 14 -8 32 -10 40 -2 8 -4 17
-6 20 -1 3 -3 10 -4 15 -1 6 -5 17 -8 25 -5 13 -24 79 -33 115 -14 58 -78 181
-313 600 -151 270 -280 497 -288 505 -7 8 -24 27 -36 42 -75 90 -125 144 -228
247 -123 123 -234 226 -285 263 -17 13 -38 30 -46 38 -9 8 -26 22 -38 30 -12
8 -40 29 -61 45 -74 59 -257 185 -268 185 -5 0 -16 6 -23 14 -15 15 -247 150
-313 182 -22 10 -42 22 -45 25 -3 3 -26 14 -52 25 -27 10 -48 22 -48 27 0 4
-4 7 -10 7 -5 0 -47 17 -92 39 -46 21 -119 53 -163 71 -44 18 -94 38 -112 46
-17 8 -38 14 -46 14 -9 0 -17 3 -19 8 -6 15 -511 177 -598 192 -30 5 -86 18
-125 30 -38 11 -88 23 -109 26 -21 2 -43 7 -47 10 -5 3 -30 9 -57 14 -26 4
-85 15 -132 24 -111 22 -152 28 -255 41 -27 4 -61 8 -75 10 -14 2 -53 7 -88
10 -35 4 -73 9 -85 11 -53 12 -608 11 -727 -1z"/>
</g>
</svg>
