<svg version="1.0" xmlns="http://www.w3.org/2000/svg"
 width="887.000000pt" height="911.000000pt" viewBox="0 0 887.000000 911.000000"
 preserveAspectRatio="xMidYMid meet">
<g transform="translate(0.000000,911.000000) scale(0.100000,-0.100000)"
fill="#FFA168" stroke="none">
<path d="M3950 9104 c-14 -3 -79 -14 -145 -25 -223 -37 -554 -129 -795 -220
-239 -91 -500 -226 -742 -385 -71 -46 -133 -84 -137 -84 -23 0 -459 -344 -500
-393 -7 -9 -19 -17 -26 -17 -7 0 -117 -105 -245 -232 -230 -230 -388 -406
-510 -569 -35 -46 -74 -94 -87 -107 -13 -13 -65 -87 -117 -165 -139 -211 -265
-440 -346 -627 -17 -41 -49 -112 -71 -157 -70 -145 -139 -383 -196 -668 -27
-140 -27 -142 -31 -645 -2 -338 0 -533 8 -590 6 -47 13 -110 15 -140 9 -132
131 -604 226 -875 23 -66 43 -129 44 -140 4 -25 88 -246 149 -387 25 -59 46
-110 46 -113 0 -11 151 -337 211 -457 33 -65 59 -123 59 -129 0 -21 81 -172
144 -269 172 -263 473 -565 809 -813 51 -37 100 -74 110 -82 74 -62 463 -273
652 -354 55 -24 141 -63 190 -86 173 -83 575 -205 902 -275 76 -17 167 -36
203 -44 197 -44 316 -51 845 -51 l510 0 160 28 c281 50 541 119 745 197 237
91 379 165 592 306 70 46 130 84 133 84 41 0 614 545 819 780 60 69 123 139
140 156 37 37 207 255 296 379 35 50 73 100 84 112 70 72 307 485 414 718 40
88 91 197 113 243 76 157 170 481 221 762 22 119 23 149 23 625 0 275 -3 535
-8 579 -22 228 -147 640 -297 976 -27 61 -47 110 -44 110 3 0 -36 80 -87 177
-136 265 -272 476 -478 746 -58 76 -121 159 -139 185 -118 166 -660 725 -907
934 -263 223 -313 262 -480 374 -88 59 -185 124 -215 144 -74 50 -312 169
-461 230 -144 59 -327 119 -469 154 -58 15 -113 31 -123 36 -10 6 -82 22 -160
37 -137 25 -158 26 -582 28 -242 2 -451 1 -465 -1z"/>
</g>
</svg>
