<svg version="1.0" xmlns="http://www.w3.org/2000/svg"
 width="887.000000pt" height="911.000000pt" viewBox="0 0 887.000000 911.000000"
 preserveAspectRatio="xMidYMid meet">
<g transform="translate(0.000000,911.000000) scale(0.100000,-0.100000)"
fill="#D9272E" stroke="none">
<path d="M4258 9095 c-2 -2 -41 -6 -88 -9 -120 -9 -225 -20 -295 -31 -24 -4
-142 -24 -170 -30 -11 -2 -45 -8 -75 -13 -30 -6 -62 -13 -70 -16 -8 -3 -26 -8
-40 -10 -101 -20 -390 -101 -485 -136 -11 -4 -67 -25 -125 -45 -58 -21 -129
-48 -158 -61 -29 -13 -55 -24 -58 -24 -3 0 -26 -9 -52 -21 -26 -12 -63 -28
-82 -36 -56 -24 -330 -162 -385 -194 -27 -15 -59 -33 -70 -38 -11 -6 -42 -24
-70 -41 -27 -16 -59 -34 -70 -39 -12 -5 -27 -16 -34 -25 -7 -9 -17 -14 -21
-11 -4 2 -15 -4 -25 -15 -10 -11 -22 -20 -27 -20 -9 0 -102 -64 -135 -94 -13
-11 -23 -16 -23 -12 0 4 -22 -11 -49 -33 -27 -23 -52 -41 -56 -41 -4 0 -38
-26 -76 -57 -38 -32 -98 -80 -134 -108 -37 -27 -97 -79 -134 -115 -37 -36 -90
-86 -117 -111 -27 -25 -80 -79 -118 -120 -38 -41 -88 -94 -111 -119 -23 -25
-68 -79 -101 -120 -32 -41 -63 -78 -67 -81 -16 -12 -197 -275 -218 -319 -13
-25 -38 -69 -56 -97 -63 -100 -163 -311 -234 -498 -24 -61 -91 -300 -118 -415
-37 -162 -73 -502 -90 -861 -11 -251 -4 -719 15 -864 2 -16 6 -59 9 -95 3 -36
8 -78 10 -95 2 -16 7 -55 10 -85 13 -116 96 -556 115 -606 5 -13 7 -24 4 -24
-4 0 -2 -6 3 -12 6 -7 16 -38 22 -68 7 -30 16 -64 21 -75 5 -11 14 -38 20 -60
6 -22 14 -47 17 -55 3 -8 7 -19 9 -25 3 -15 70 -196 85 -230 7 -16 13 -32 14
-35 5 -23 191 -398 215 -435 11 -16 24 -39 30 -50 23 -44 103 -166 172 -265
48 -67 323 -387 389 -450 122 -118 198 -185 288 -253 51 -39 105 -81 119 -94
14 -12 31 -23 38 -23 8 0 14 -4 14 -8 0 -8 163 -122 175 -122 2 0 44 -24 93
-54 217 -131 590 -304 812 -375 19 -6 89 -29 155 -50 147 -48 273 -82 430
-117 132 -28 131 -28 195 -43 163 -37 525 -86 830 -112 159 -14 867 -19 1015
-7 124 10 375 45 455 64 14 3 36 8 50 10 14 2 35 6 48 9 12 3 30 7 40 9 79 18
296 79 332 93 8 3 20 7 25 9 24 6 161 57 170 63 6 4 33 16 60 25 54 19 331
155 380 187 17 10 39 23 50 29 11 6 34 19 50 30 17 10 40 25 52 32 12 7 49 32
83 56 34 23 65 42 68 42 2 0 33 25 67 55 35 30 67 55 71 55 13 0 165 134 283
251 26 25 121 127 194 207 124 138 377 508 469 687 105 203 140 275 133 275
-3 0 6 21 19 48 27 54 125 302 136 347 5 17 31 107 58 200 27 94 57 202 65
240 9 39 20 89 26 111 37 144 97 595 110 819 8 139 6 726 -4 805 -2 19 -5 49
-6 65 -1 17 -5 57 -10 90 -4 33 -11 83 -14 110 -4 28 -8 59 -10 70 -2 11 -6
43 -10 70 -3 28 -11 70 -17 95 -5 25 -12 56 -14 70 -3 14 -7 32 -9 40 -2 8 -7
29 -9 45 -6 33 -82 310 -93 335 -3 8 -7 20 -9 25 -4 15 -70 196 -85 230 -7 17
-13 32 -14 35 0 3 -14 32 -30 65 -16 33 -30 62 -30 65 -4 34 -183 351 -285
504 -79 119 -400 494 -517 606 -151 143 -178 167 -273 241 -52 40 -99 79 -105
85 -26 31 -472 336 -513 352 -10 3 -62 33 -117 67 -112 70 -232 134 -445 241
-165 83 -397 194 -405 194 -3 0 -40 16 -83 36 -184 85 -354 156 -438 183 -149
47 -327 88 -447 101 -51 6 -99 13 -108 16 -18 5 -475 14 -481 9z"/>
</g>
</svg>
