<svg version="1.0" xmlns="http://www.w3.org/2000/svg"
 width="887.000000pt" height="911.000000pt" viewBox="0 0 887.000000 911.000000"
 preserveAspectRatio="xMidYMid meet">
<g transform="translate(0.000000,911.000000) scale(0.100000,-0.100000)"
fill="#969300" stroke="none">
<path d="M4528 9085 c-2 -2 -50 -6 -108 -8 -58 -3 -105 -6 -105 -7 0 0 -20 -2
-45 -4 -40 -3 -77 -8 -160 -21 -14 -2 -45 -7 -70 -10 -73 -10 -101 -15 -180
-30 -41 -8 -88 -17 -105 -20 -67 -11 -89 -16 -99 -22 -5 -4 -19 -8 -30 -9 -41
-5 -72 -12 -98 -23 -16 -6 -28 -8 -28 -6 0 3 -16 -1 -36 -10 -19 -8 -38 -14
-42 -13 -4 1 -32 -6 -62 -15 -30 -10 -77 -25 -105 -33 -27 -9 -64 -22 -82 -30
-17 -8 -38 -14 -46 -14 -9 0 -18 -4 -22 -10 -3 -5 -12 -7 -20 -3 -9 3 -21 1
-28 -5 -6 -5 -25 -12 -41 -16 -16 -4 -58 -20 -92 -37 -35 -16 -70 -29 -78 -29
-8 0 -17 -4 -20 -9 -3 -5 -21 -12 -40 -15 -19 -4 -54 -17 -78 -30 -24 -13 -55
-27 -69 -31 -13 -4 -51 -19 -84 -34 -33 -16 -75 -34 -92 -42 -18 -8 -33 -17
-33 -20 0 -4 -16 -10 -35 -13 -19 -4 -35 -11 -35 -16 0 -4 -13 -11 -30 -15
-17 -4 -30 -11 -30 -16 0 -5 -9 -9 -19 -9 -11 0 -21 -3 -23 -7 -1 -5 -21 -17
-43 -28 -22 -11 -42 -22 -45 -25 -3 -3 -36 -21 -75 -40 -38 -19 -71 -38 -73
-42 -2 -5 -10 -8 -18 -8 -8 0 -14 -3 -14 -7 0 -5 -18 -17 -40 -27 -22 -10 -47
-26 -57 -35 -10 -9 -35 -25 -56 -35 -20 -11 -37 -23 -37 -28 0 -4 -5 -8 -11
-8 -6 0 -17 -6 -24 -12 -32 -29 -45 -38 -52 -38 -4 0 -24 -15 -43 -33 -19 -17
-37 -31 -40 -30 -5 2 -40 -23 -81 -57 -9 -8 -30 -24 -45 -35 -15 -11 -48 -39
-73 -62 -25 -24 -48 -43 -52 -43 -9 0 -291 -279 -339 -336 -19 -23 -50 -59
-68 -82 -19 -23 -41 -50 -50 -61 -10 -10 -24 -29 -32 -41 -8 -12 -22 -30 -30
-40 -8 -10 -22 -28 -30 -40 -8 -12 -19 -28 -25 -34 -36 -40 -90 -148 -310
-615 -136 -287 -248 -530 -250 -540 -9 -37 -24 -89 -38 -133 -8 -27 -13 -48
-11 -48 3 0 0 -9 -5 -19 -6 -10 -13 -34 -16 -52 -2 -19 -11 -61 -20 -94 -8
-33 -17 -73 -19 -90 -3 -16 -8 -41 -11 -55 -7 -29 -10 -46 -20 -115 -4 -27 -9
-59 -12 -70 -2 -11 -6 -40 -8 -64 -3 -24 -7 -53 -11 -63 -3 -10 -8 -40 -10
-66 -7 -67 -12 -111 -18 -162 -8 -61 -16 -165 -32 -405 -9 -140 -10 -928 -2
-1060 4 -55 10 -116 13 -135 4 -19 13 -71 21 -115 8 -44 18 -87 21 -95 4 -8 7
-22 7 -30 1 -8 4 -19 7 -25 4 -5 10 -28 14 -50 4 -22 10 -44 13 -50 4 -5 7
-14 8 -20 3 -16 85 -238 95 -257 5 -10 9 -22 9 -28 0 -10 28 -72 98 -220 14
-30 34 -67 44 -83 11 -15 17 -27 14 -27 -4 0 5 -18 19 -40 14 -22 25 -44 25
-50 0 -5 5 -10 10 -10 6 0 10 -9 10 -20 0 -11 5 -20 10 -20 6 0 10 -7 10 -15
0 -8 4 -15 9 -15 5 0 11 -10 15 -23 3 -12 13 -31 23 -42 10 -12 27 -37 37 -58
11 -20 23 -37 28 -37 4 0 8 -7 8 -15 0 -8 4 -15 9 -15 5 0 13 -10 17 -22 3
-12 13 -28 20 -36 8 -7 28 -34 46 -60 33 -47 53 -74 75 -97 7 -8 13 -17 13
-22 0 -9 38 -54 96 -115 19 -21 32 -38 29 -38 -4 0 0 -6 7 -14 7 -8 36 -40 63
-70 50 -56 105 -117 191 -208 25 -27 50 -48 56 -48 6 0 8 -3 5 -6 -4 -4 26
-36 65 -73 40 -36 94 -87 122 -114 27 -26 53 -47 58 -47 4 0 8 -5 8 -10 0 -6
7 -13 15 -16 8 -3 32 -22 53 -43 21 -20 52 -47 71 -61 18 -14 38 -30 44 -35 7
-6 32 -26 57 -45 25 -19 51 -40 58 -47 7 -7 17 -13 20 -13 4 0 18 -10 32 -22
14 -13 45 -36 70 -53 25 -16 51 -36 58 -42 7 -7 20 -13 28 -13 8 0 14 -5 14
-11 0 -5 13 -15 30 -20 16 -6 30 -15 30 -19 0 -5 9 -12 20 -15 11 -3 27 -13
35 -22 18 -18 1060 -512 1092 -518 13 -2 28 -7 34 -10 9 -6 101 -32 139 -39 8
-2 35 -9 60 -16 25 -7 52 -14 60 -16 8 -1 26 -6 40 -10 14 -5 345 -9 735 -9
769 0 744 -2 903 56 28 10 52 17 52 15 0 -5 129 40 137 48 4 3 13 6 21 6 8 0
28 6 45 14 18 7 68 26 112 41 44 15 94 33 112 41 17 8 36 14 42 14 6 0 19 4
29 9 40 22 109 51 120 51 7 0 20 4 30 10 24 13 105 48 115 49 4 0 22 8 40 18
17 9 35 17 39 18 3 0 10 3 14 8 4 4 16 7 26 7 10 0 18 5 18 10 0 6 6 10 13 10
7 0 30 9 52 20 22 11 43 20 48 20 5 0 21 9 35 19 15 10 30 19 34 20 20 3 292
144 296 154 2 4 10 7 17 7 7 0 15 3 17 8 3 7 66 43 115 66 13 6 23 14 23 19 0
4 7 7 15 7 8 0 15 3 15 8 0 4 18 16 40 26 22 10 47 26 57 35 10 9 35 25 56 35
20 11 37 23 37 28 0 4 7 8 15 8 8 0 15 4 15 10 0 5 11 12 25 16 14 3 25 9 25
13 0 4 13 15 30 24 16 10 35 23 42 30 7 7 31 24 54 40 22 15 49 35 60 45 10 9
32 26 49 36 16 11 46 34 65 52 19 18 46 42 60 53 14 12 40 33 58 48 19 16 49
43 68 61 19 19 34 32 34 29 0 -9 272 273 327 340 17 21 40 48 50 60 10 11 25
31 33 43 8 12 20 28 25 34 6 6 34 43 63 81 28 39 56 75 60 81 23 27 496 1046
509 1094 36 142 63 258 68 290 6 46 13 89 19 120 2 14 8 48 12 75 4 28 8 59
10 70 14 90 27 342 27 525 -1 184 -14 478 -23 500 -1 3 -2 9 -1 14 1 5 -2 39
-8 75 -6 36 -13 86 -16 111 -7 53 -14 96 -20 130 -3 14 -7 41 -10 60 -10 63
-46 245 -52 260 -3 8 -7 24 -9 35 -9 57 -44 195 -95 370 -5 17 -17 60 -27 97
-10 37 -21 71 -25 74 -4 4 -7 14 -7 22 0 8 -6 28 -14 45 -24 54 -65 180 -81
247 0 3 -7 16 -15 30 -11 21 -64 160 -74 195 -6 21 -19 52 -41 100 -13 28 -27
63 -30 78 -4 15 -11 27 -15 27 -4 0 -11 12 -15 28 -3 15 -20 56 -38 92 -17 36
-31 68 -31 72 -1 3 -4 10 -8 14 -5 4 -8 16 -8 26 0 10 -4 18 -10 18 -5 0 -10
5 -10 12 0 11 -90 198 -100 208 -5 5 -40 69 -79 145 -9 17 -19 32 -23 33 -5 2
-8 10 -8 17 0 7 -3 15 -7 17 -5 2 -16 20 -27 40 -10 20 -27 46 -36 56 -10 10
-21 28 -24 40 -4 12 -12 22 -17 22 -5 0 -9 5 -9 10 0 6 -11 23 -25 38 -14 15
-25 30 -25 34 0 7 -15 28 -45 62 -5 6 -23 29 -40 51 -33 44 -54 71 -71 89 -6
6 -15 19 -20 28 -27 49 -297 325 -386 394 -15 12 -24 24 -21 28 3 3 -1 6 -11
6 -9 0 -19 7 -22 15 -4 8 -10 15 -15 15 -4 0 -21 12 -37 28 -15 15 -43 38 -61
52 -17 14 -42 33 -53 43 -12 9 -27 17 -35 17 -8 0 -12 4 -9 9 3 5 -8 14 -24
20 -17 5 -30 14 -30 19 0 6 -11 13 -25 16 -14 4 -24 10 -22 14 3 4 -203 104
-457 223 -445 208 -508 236 -551 244 -39 7 -65 14 -76 20 -5 4 -20 8 -32 10
-12 2 -33 6 -47 10 -14 3 -38 8 -55 11 -16 3 -37 7 -45 10 -8 3 -28 8 -45 11
-16 2 -41 6 -55 9 -14 3 -38 7 -54 9 -15 2 -35 7 -45 9 -9 3 -45 8 -81 11 -36
2 -76 7 -90 10 -60 12 -622 30 -632 20z"/>
</g>
</svg>
