<svg version="1.0" xmlns="http://www.w3.org/2000/svg"
 width="887.000000pt" height="911.000000pt" viewBox="0 0 887.000000 911.000000"
 preserveAspectRatio="xMidYMid meet">
<g transform="translate(0.000000,911.000000) scale(0.100000,-0.100000)"
fill="#00BCB4" stroke="none">
<path d="M3818 9054 c-2 -2 -49 -8 -104 -14 -54 -6 -126 -17 -159 -25 -33 -7
-78 -16 -100 -19 -39 -6 -59 -11 -175 -43 -80 -21 -393 -124 -405 -132 -5 -4
-37 -18 -70 -30 -33 -13 -84 -34 -113 -47 -29 -13 -55 -24 -58 -24 -8 0 -449
-232 -454 -239 -3 -4 -39 -26 -80 -51 -41 -24 -79 -48 -85 -52 -5 -5 -55 -38
-110 -75 -55 -37 -106 -73 -113 -80 -8 -7 -23 -18 -35 -25 -12 -6 -31 -19 -42
-29 -11 -10 -51 -42 -90 -70 -38 -29 -75 -58 -82 -64 -6 -5 -30 -26 -54 -45
-23 -19 -53 -44 -65 -55 -12 -12 -53 -48 -90 -80 -90 -81 -305 -295 -381 -381
-131 -148 -153 -176 -298 -374 -206 -283 -237 -333 -408 -665 -29 -57 -67
-141 -67 -149 0 -3 -11 -30 -25 -60 -14 -30 -53 -135 -88 -233 l-62 -178 -3
-849 c-2 -534 1 -868 7 -900 31 -156 74 -347 105 -466 65 -243 112 -403 130
-438 7 -15 16 -40 20 -57 6 -29 102 -282 134 -355 8 -19 35 -80 59 -134 24
-55 63 -136 87 -180 98 -182 149 -272 160 -286 7 -8 28 -42 46 -75 18 -33 36
-62 40 -65 4 -3 24 -32 46 -64 74 -112 87 -131 94 -136 4 -3 31 -36 61 -75 29
-38 58 -75 64 -82 5 -6 26 -30 45 -54 19 -23 103 -110 185 -193 135 -136 179
-172 435 -357 157 -113 299 -213 315 -222 17 -9 41 -22 55 -29 14 -6 37 -20
53 -31 15 -10 27 -15 27 -11 0 4 8 1 18 -7 9 -8 33 -22 52 -31 63 -31 170 -78
178 -78 4 -1 25 -9 47 -20 22 -11 43 -19 46 -20 4 0 24 -8 45 -17 22 -9 42
-18 47 -19 4 -1 9 -3 12 -4 3 -1 10 -4 15 -5 6 -1 11 -3 13 -5 1 -1 9 -3 17
-6 8 -2 49 -15 90 -29 89 -31 394 -110 465 -121 28 -4 55 -8 60 -10 73 -17
115 -25 167 -29 35 -3 70 -8 78 -10 25 -7 144 -20 275 -30 44 -3 105 -8 135
-11 118 -11 598 -4 780 11 30 2 87 7 126 10 39 3 80 7 90 9 11 2 66 9 124 16
172 20 549 82 604 99 17 5 49 12 71 16 48 8 200 43 235 54 14 5 50 14 80 21
233 50 572 176 844 312 169 84 429 240 473 284 7 7 29 22 50 35 21 13 43 28
49 34 7 5 51 42 99 80 92 73 346 320 427 415 56 66 327 436 339 465 5 11 22
43 39 70 26 44 177 338 180 350 2 8 31 79 45 111 20 42 145 414 140 414 -2 0
2 19 11 41 8 23 16 51 18 63 2 12 14 64 25 115 12 52 24 115 27 140 3 26 8 49
10 52 1 3 6 28 9 55 3 27 10 74 15 104 22 128 25 217 25 635 0 395 -4 510 -20
625 -3 19 -7 53 -10 75 -12 102 -27 200 -41 267 -8 40 -21 109 -30 153 -25
133 -30 155 -62 280 -67 259 -154 530 -216 670 -10 22 -24 56 -31 75 -19 52
-165 354 -174 360 -4 3 -27 41 -51 85 -23 44 -46 82 -50 85 -3 3 -24 34 -45
70 -38 63 -103 160 -115 170 -3 3 -17 21 -30 40 -58 85 -226 276 -351 400
-114 114 -180 167 -420 341 -335 244 -368 264 -611 386 -80 40 -150 73 -154
73 -4 0 -35 13 -68 29 -34 17 -86 39 -116 51 -30 11 -68 27 -85 34 -16 8 -118
44 -225 81 -225 77 -514 158 -765 215 -22 5 -60 13 -85 19 -25 6 -56 13 -70
15 -14 3 -25 5 -25 6 0 1 -16 4 -35 6 -19 3 -48 9 -65 14 -16 5 -50 12 -75 15
-25 4 -72 13 -105 20 -33 8 -80 17 -105 20 -40 5 -138 22 -237 40 -109 19
-180 23 -365 23 -113 0 -208 -2 -210 -4z"/>
</g>
</svg>
