<svg width="900" height="600" viewBox="0 0 900 600" fill="none" xmlns="http://www.w3.org/2000/svg">
<rect width="900" height="600" fill="#F6F6F7"/>
<path d="M0 0H900V600H0V0Z" fill="#F6F6F7"/>
<path d="M779.112 399.48H715.685C700.143 399.48 687.122 388.902 687.122 375.504C687.122 368.805 690.482 362.811 695.523 358.579C700.563 354.348 707.704 351.528 715.685 351.528H724.926C732.907 351.528 740.048 348.707 745.088 344.476C750.129 340.245 753.489 334.251 753.489 327.551C753.489 314.506 740.888 303.575 724.926 303.575H531.198C526.136 303.575 522.883 297.354 522.883 292.292C522.883 279.599 510.702 269.374 495.58 269.374H423.487C421.678 269.352 419.95 268.618 418.679 267.331C417.407 266.044 416.694 264.308 416.694 262.499C416.694 260.689 417.407 258.953 418.679 257.666C419.95 256.379 421.678 255.645 423.487 255.623H699.723C711.905 255.623 723.246 251.392 731.227 244.693C739.208 237.993 744.248 228.473 744.248 218.248C744.248 197.445 724.086 180.874 699.723 180.874H557.051C534.665 180.874 512.506 163.597 490.12 163.597H410.464C398.78 163.597 389.308 154.125 389.308 142.441C389.308 130.757 398.78 121.286 410.464 121.286H588.831C597.232 121.286 605.213 118.465 610.673 113.881C616.134 109.298 619.494 102.951 619.494 95.5471C619.494 81.4431 605.633 69.8071 588.831 69.8071H177.604C169.203 69.8071 161.223 72.6281 155.762 77.2121C150.301 81.7961 146.941 88.1421 146.941 95.5471C146.941 109.65 160.802 121.286 177.604 121.286H188.106C201.967 121.286 213.728 130.806 213.728 142.794C213.728 148.788 210.788 154.077 206.168 157.955C201.547 161.834 195.246 164.302 188.106 164.302H137.28C128.459 164.302 120.058 167.475 114.177 172.412C108.297 177.348 104.516 184.047 104.516 191.804C104.516 206.965 119.218 218.954 136.86 218.954H188.526C205.327 218.954 219.189 230.589 219.189 244.693C219.189 251.744 215.829 258.091 210.368 262.675C204.907 267.258 197.347 270.079 188.946 270.079H142.74C135.18 270.079 128.459 272.547 123.418 276.778C118.378 281.009 115.437 286.651 115.437 292.998C115.437 305.691 127.619 315.916 142.74 315.916H180.125C201.547 315.916 218.769 330.372 218.769 348.354C218.769 357.169 214.569 365.631 207.428 371.273C200.287 377.267 190.626 380.793 180.125 380.793H128.039C117.538 380.793 107.876 384.319 101.156 390.313C94.015 395.954 89.814 404.064 89.814 412.878C89.814 430.508 107.036 444.964 128.039 444.964H288.871C306.633 444.964 324.081 454.837 341.843 454.837H371.134C382.332 454.837 391.408 463.914 391.408 475.111C391.408 486.308 382.332 495.385 371.135 495.385H299.838C290.597 495.385 282.616 498.558 276.736 503.494C270.855 508.431 267.074 515.482 267.074 522.887C267.074 538.048 281.776 550.389 299.838 550.389H736.687C745.928 550.389 753.909 547.215 759.79 542.279C765.671 537.343 769.451 530.291 769.451 522.887C769.451 507.725 754.749 495.385 736.687 495.385H723.666C710.224 495.385 699.723 486.217 699.723 475.287C699.723 469.646 702.244 464.709 706.864 461.183C711.065 457.657 717.365 455.189 724.086 455.189H779.112C788.353 455.189 796.334 452.016 802.215 447.08C808.096 442.143 811.876 435.092 811.876 427.687C811.876 411.821 797.174 399.48 779.112 399.48V399.48Z" fill="#EAB003"/>
<path d="M828.853 361.618C818.156 366.924 803.958 360.101 803.958 360.101C803.958 360.101 807.113 344.678 817.816 339.379C828.513 334.073 842.705 340.888 842.705 340.888C842.705 340.888 839.55 356.311 828.853 361.618V361.618Z" fill="#A9415A"/>
<path d="M80.133 356.131C95.753 365.493 118.163 356.839 118.163 356.839C118.163 356.839 115.233 333.01 99.603 323.658C83.983 314.297 61.583 322.94 61.583 322.94C61.583 322.94 64.513 346.77 80.133 356.131Z" fill="#F5E5B4"/>
<path d="M791.169 196.934C787.157 196.934 783.905 200.186 783.905 204.198C783.905 208.21 787.157 211.462 791.169 211.462C795.181 211.462 798.433 208.21 798.433 204.198C798.433 200.186 795.181 196.934 791.169 196.934Z" fill="#E9B000"/>
<path d="M638.854 442.808C631.309 442.808 625.192 448.925 625.192 456.47C625.192 464.015 631.309 470.132 638.854 470.132C646.399 470.132 652.516 464.015 652.516 456.47C652.516 448.925 646.399 442.808 638.854 442.808Z" fill="#E9B000"/>
<path d="M189.938 498.263C183.948 498.263 179.093 493.408 179.093 487.418C179.093 481.429 183.948 476.573 189.938 476.573C195.927 476.573 200.783 481.429 200.783 487.418C200.783 493.408 195.927 498.263 189.938 498.263Z" fill="#018E97"/>
<path d="M759.721 287.68C755.711 287.68 752.46 284.429 752.46 280.419C752.46 276.409 755.711 273.158 759.721 273.158C763.731 273.158 766.982 276.409 766.982 280.419C766.982 284.429 763.731 287.68 759.721 287.68Z" fill="#E9B000"/>
<path d="M71.375 506.879C63.9274 506.879 57.89 500.842 57.89 493.394C57.89 485.947 63.9274 479.909 71.375 479.909C78.8225 479.909 84.86 485.947 84.86 493.394C84.86 500.842 78.8225 506.879 71.375 506.879Z" fill="#CB6D7A"/>
<path d="M801.988 509.152C796.32 509.152 791.725 504.557 791.725 498.889C791.725 493.221 796.32 488.626 801.988 488.626C807.656 488.626 812.251 493.221 812.251 498.889C812.251 504.557 807.656 509.152 801.988 509.152Z" fill="#E54C42"/>
<path d="M689.229 140.748C682.104 140.748 676.329 134.973 676.329 127.848C676.329 120.724 682.104 114.948 689.229 114.948C696.353 114.948 702.129 120.724 702.129 127.848C702.129 134.973 696.353 140.748 689.229 140.748Z" fill="#EA6E80"/>
<path d="M182.506 247.369C183.971 252.835 180.727 258.453 175.261 259.918C169.795 261.382 164.177 258.139 162.713 252.673C161.248 247.207 164.492 241.589 169.958 240.124C175.424 238.659 181.042 241.903 182.506 247.369Z" fill="#018E97"/>
<path d="M289.013 135.91C281.485 135.91 275.382 129.807 275.382 122.279C275.382 114.751 281.485 108.648 289.013 108.648C296.541 108.648 302.644 114.751 302.644 122.279C302.644 129.807 296.541 135.91 289.013 135.91Z" fill="#E54D42"/>
<path d="M741.533 383.91C735.742 383.91 731.048 380.154 731.048 375.522C731.048 370.889 735.742 367.134 741.533 367.134C747.324 367.134 752.018 370.889 752.018 375.522C752.018 380.154 747.324 383.91 741.533 383.91Z" fill="#37292D"/>
<path d="M619.979 56.5974C623.027 67.973 616.277 79.6657 604.901 82.7138C593.525 85.7619 581.833 79.0111 578.784 67.6355C575.736 56.2599 582.487 44.5671 593.863 41.519C605.238 38.4709 616.931 45.2217 619.979 56.5974Z" fill="#018E97"/>
<path d="M190.484 135.17H190.633C191.518 147.702 200.838 147.895 200.838 147.895C200.838 147.895 190.561 148.095 190.561 162.576C190.561 148.095 180.283 147.895 180.283 147.895C180.283 147.895 189.599 147.702 190.484 135.17V135.17ZM199.593 537.24H199.736C200.585 549.735 209.534 549.927 209.534 549.927C209.534 549.927 199.666 550.127 199.666 564.565C199.666 550.127 189.799 549.927 189.799 549.927C189.799 549.927 198.744 549.735 199.593 537.24V537.24Z" fill="#EAB101"/>
<path fill-rule="evenodd" clip-rule="evenodd" d="M450.481 462.941C540.761 462.941 613.948 389.754 613.948 299.474C613.948 209.194 540.761 136.008 450.481 136.008C360.201 136.008 287.014 209.194 287.014 299.474C287.014 389.754 360.201 462.941 450.481 462.941V462.941ZM450.481 503.808C563.331 503.808 654.814 412.324 654.814 299.474C654.814 186.624 563.331 95.1411 450.481 95.1411C337.631 95.1411 246.148 186.624 246.148 299.474C246.148 412.324 337.631 503.808 450.481 503.808Z" fill="white"/>
<path d="M451.638 468.339C547.454 468.339 625.129 390.664 625.129 294.848C625.129 199.031 547.454 121.357 451.638 121.357C355.822 121.357 278.147 199.031 278.147 294.848C278.147 390.664 355.822 468.339 451.638 468.339Z" fill="white"/>
<path d="M308.884 275.864C304.9 275.864 301.036 275.336 297.292 274.28C293.596 273.176 290.62 271.76 288.364 270.032L292.324 261.248C294.484 262.832 297.052 264.104 300.028 265.064C303.004 266.024 305.98 266.504 308.956 266.504C312.268 266.504 314.716 266.024 316.3 265.064C317.884 264.056 318.676 262.736 318.676 261.104C318.676 259.904 318.196 258.92 317.236 258.152C316.324 257.336 315.124 256.688 313.636 256.208C312.196 255.728 310.228 255.2 307.732 254.624C303.892 253.712 300.748 252.8 298.3 251.888C295.852 250.976 293.74 249.512 291.964 247.496C290.236 245.48 289.372 242.792 289.372 239.432C289.372 236.504 290.164 233.864 291.748 231.512C293.332 229.112 295.708 227.216 298.876 225.824C302.092 224.432 306.004 223.736 310.612 223.736C313.828 223.736 316.972 224.12 320.044 224.888C323.116 225.656 325.804 226.76 328.108 228.2L324.508 237.056C319.852 234.416 315.196 233.096 310.54 233.096C307.276 233.096 304.852 233.624 303.268 234.68C301.732 235.736 300.964 237.128 300.964 238.856C300.964 240.584 301.852 241.88 303.628 242.744C305.452 243.56 308.212 244.376 311.908 245.192C315.748 246.104 318.892 247.016 321.34 247.928C323.788 248.84 325.876 250.28 327.604 252.248C329.38 254.216 330.268 256.88 330.268 260.24C330.268 263.12 329.452 265.76 327.82 268.16C326.236 270.512 323.836 272.384 320.62 273.776C317.404 275.168 313.492 275.864 308.884 275.864ZM356.958 266.576C358.974 266.576 360.75 266.288 362.286 265.712C363.87 265.088 365.334 264.128 366.678 262.832L372.654 269.312C369.006 273.488 363.678 275.576 356.67 275.576C352.302 275.576 348.438 274.736 345.078 273.056C341.718 271.328 339.126 268.952 337.302 265.928C335.478 262.904 334.566 259.472 334.566 255.632C334.566 251.84 335.454 248.432 337.23 245.408C339.054 242.336 341.526 239.96 344.646 238.28C347.814 236.552 351.366 235.688 355.302 235.688C358.998 235.688 362.358 236.48 365.382 238.064C368.406 239.6 370.806 241.856 372.582 244.832C374.406 247.76 375.318 251.24 375.318 255.272L346.662 260.816C347.478 262.736 348.75 264.176 350.478 265.136C352.254 266.096 354.414 266.576 356.958 266.576ZM355.302 244.184C352.47 244.184 350.166 245.096 348.39 246.92C346.614 248.744 345.678 251.264 345.582 254.48L364.446 250.808C363.918 248.792 362.838 247.184 361.206 245.984C359.574 244.784 357.606 244.184 355.302 244.184ZM396.764 275.576C392.396 275.576 388.988 274.424 386.54 272.12C384.092 269.768 382.868 266.456 382.868 262.184V221.576H394.1V261.536C394.1 263.168 394.508 264.44 395.324 265.352C396.188 266.216 397.388 266.648 398.924 266.648C399.5 266.648 400.076 266.576 400.652 266.432C401.276 266.288 401.756 266.12 402.092 265.928L402.596 274.64C400.724 275.264 398.78 275.576 396.764 275.576ZM426.919 266.576C428.935 266.576 430.711 266.288 432.247 265.712C433.831 265.088 435.295 264.128 436.639 262.832L442.615 269.312C438.967 273.488 433.639 275.576 426.631 275.576C422.263 275.576 418.399 274.736 415.039 273.056C411.679 271.328 409.087 268.952 407.263 265.928C405.439 262.904 404.527 259.472 404.527 255.632C404.527 251.84 405.415 248.432 407.191 245.408C409.015 242.336 411.487 239.96 414.607 238.28C417.775 236.552 421.327 235.688 425.263 235.688C428.959 235.688 432.319 236.48 435.343 238.064C438.367 239.6 440.767 241.856 442.543 244.832C444.367 247.76 445.279 251.24 445.279 255.272L416.623 260.816C417.439 262.736 418.711 264.176 420.439 265.136C422.215 266.096 424.375 266.576 426.919 266.576ZM425.263 244.184C422.431 244.184 420.127 245.096 418.351 246.92C416.575 248.744 415.639 251.264 415.543 254.48L434.407 250.808C433.879 248.792 432.799 247.184 431.167 245.984C429.535 244.784 427.567 244.184 425.263 244.184ZM471.549 275.576C467.421 275.576 463.701 274.736 460.389 273.056C457.125 271.328 454.557 268.952 452.685 265.928C450.861 262.904 449.949 259.472 449.949 255.632C449.949 251.792 450.861 248.36 452.685 245.336C454.557 242.312 457.125 239.96 460.389 238.28C463.701 236.552 467.421 235.688 471.549 235.688C475.629 235.688 479.181 236.552 482.205 238.28C485.277 239.96 487.509 242.384 488.901 245.552L480.189 250.232C478.173 246.68 475.269 244.904 471.477 244.904C468.549 244.904 466.125 245.864 464.205 247.784C462.285 249.704 461.325 252.32 461.325 255.632C461.325 258.944 462.285 261.56 464.205 263.48C466.125 265.4 468.549 266.36 471.477 266.36C475.317 266.36 478.221 264.584 480.189 261.032L488.901 265.784C487.509 268.856 485.277 271.256 482.205 272.984C479.181 274.712 475.629 275.576 471.549 275.576ZM518.414 273.128C517.31 273.944 515.942 274.568 514.31 275C512.726 275.384 511.07 275.576 509.342 275.576C504.686 275.576 501.11 274.4 498.614 272.048C496.118 269.696 494.87 266.24 494.87 261.68V227.696H506.102V237.128H515.678V245.768H506.102V261.536C506.102 263.168 506.51 264.44 507.326 265.352C508.142 266.216 509.318 266.648 510.854 266.648C512.582 266.648 514.118 266.168 515.462 265.208L518.414 273.128ZM543.075 266.576C545.091 266.576 546.867 266.288 548.403 265.712C549.987 265.088 551.451 264.128 552.795 262.832L558.771 269.312C555.123 273.488 549.795 275.576 542.787 275.576C538.419 275.576 534.555 274.736 531.195 273.056C527.835 271.328 525.243 268.952 523.419 265.928C521.595 262.904 520.683 259.472 520.683 255.632C520.683 251.84 521.571 248.432 523.347 245.408C525.171 242.336 527.643 239.96 530.763 238.28C533.931 236.552 537.483 235.688 541.419 235.688C545.115 235.688 548.475 236.48 551.499 238.064C554.523 239.6 556.923 241.856 558.699 244.832C560.523 247.76 561.435 251.24 561.435 255.272L532.779 260.816C533.595 262.736 534.867 264.176 536.595 265.136C538.371 266.096 540.531 266.576 543.075 266.576ZM541.419 244.184C538.587 244.184 536.283 245.096 534.507 246.92C532.731 248.744 531.795 251.264 531.699 254.48L550.563 250.808C550.035 248.792 548.955 247.184 547.323 245.984C545.691 244.784 543.723 244.184 541.419 244.184ZM608.441 221.576V275H597.713V270.536C594.929 273.896 590.897 275.576 585.617 275.576C581.969 275.576 578.657 274.76 575.681 273.128C572.753 271.496 570.449 269.168 568.769 266.144C567.089 263.12 566.249 259.616 566.249 255.632C566.249 251.648 567.089 248.144 568.769 245.12C570.449 242.096 572.753 239.768 575.681 238.136C578.657 236.504 581.969 235.688 585.617 235.688C590.561 235.688 594.425 237.248 597.209 240.368V221.576H608.441ZM587.561 266.36C590.393 266.36 592.745 265.4 594.617 263.48C596.489 261.512 597.425 258.896 597.425 255.632C597.425 252.368 596.489 249.776 594.617 247.856C592.745 245.888 590.393 244.904 587.561 244.904C584.681 244.904 582.305 245.888 580.433 247.856C578.561 249.776 577.625 252.368 577.625 255.632C577.625 258.896 578.561 261.512 580.433 263.48C582.305 265.4 584.681 266.36 587.561 266.36ZM424.967 324.6V354.336C424.967 361.344 423.071 366.696 419.279 370.392C415.487 374.04 410.111 375.864 403.151 375.864C399.695 375.864 396.599 375.36 393.863 374.352C391.175 373.344 388.967 371.928 387.239 370.104C385.463 371.928 383.231 373.344 380.543 374.352C377.855 375.36 374.807 375.864 371.399 375.864C364.439 375.864 359.063 374.04 355.271 370.392C351.479 366.696 349.583 361.344 349.583 354.336V324.6H361.247V353.976C361.247 358.056 362.087 361.08 363.767 363.048C365.447 364.968 367.943 365.928 371.255 365.928C378.023 365.928 381.407 361.944 381.407 353.976V324.6H393.071V353.976C393.071 361.944 396.479 365.928 403.295 365.928C409.919 365.928 413.231 361.944 413.231 353.976V324.6H424.967ZM454.139 375.576C450.059 375.576 446.387 374.736 443.123 373.056C439.907 371.328 437.387 368.952 435.563 365.928C433.739 362.904 432.827 359.472 432.827 355.632C432.827 351.792 433.739 348.36 435.563 345.336C437.387 342.312 439.907 339.96 443.123 338.28C446.387 336.552 450.059 335.688 454.139 335.688C458.219 335.688 461.867 336.552 465.083 338.28C468.299 339.96 470.819 342.312 472.643 345.336C474.467 348.36 475.379 351.792 475.379 355.632C475.379 359.472 474.467 362.904 472.643 365.928C470.819 368.952 468.299 371.328 465.083 373.056C461.867 374.736 458.219 375.576 454.139 375.576ZM454.139 366.36C457.019 366.36 459.371 365.4 461.195 363.48C463.067 361.512 464.003 358.896 464.003 355.632C464.003 352.368 463.067 349.776 461.195 347.856C459.371 345.888 457.019 344.904 454.139 344.904C451.259 344.904 448.883 345.888 447.011 347.856C445.139 349.776 444.203 352.368 444.203 355.632C444.203 358.896 445.139 361.512 447.011 363.48C448.883 365.4 451.259 366.36 454.139 366.36ZM493.615 341.376C494.959 339.504 496.759 338.088 499.015 337.128C501.319 336.168 503.959 335.688 506.935 335.688V346.056C505.687 345.96 504.847 345.912 504.415 345.912C501.199 345.912 498.679 346.824 496.855 348.648C495.031 350.424 494.119 353.112 494.119 356.712V375H482.887V336.264H493.615V341.376ZM530.246 359.808L524.846 365.136V375H513.614V321.576H524.846V351.816L541.262 336.264H554.654L538.526 352.68L556.094 375H542.486L530.246 359.808Z" fill="#00C4CF"/>
</svg>
